<?xml version="1.0" encoding="UTF-8"?><svg xmlns="http://www.w3.org/2000/svg" viewBox="0 0 729 685"><defs><style>.cls-1,.cls-2{fill:none;}.cls-3{font-family:Hind-Regular, Hind;}.cls-4,.cls-5,.cls-6{font-family:Hind-Bold, Hind;font-weight:700;}.cls-7,.cls-6{fill:#3063ba;}.cls-8{letter-spacing:0em;}.cls-9{letter-spacing:0em;}.cls-10{letter-spacing:0em;}.cls-11{letter-spacing:0em;}.cls-2{stroke:#333;stroke-miterlimit:10;stroke-width:.75px;}.cls-12,.cls-5{font-size:16px;}.cls-12,.cls-5,.cls-13{fill:#333;}.cls-14{letter-spacing:0em;}.cls-15{letter-spacing:0em;}.cls-16{letter-spacing:0em;}.cls-17{letter-spacing:0em;}.cls-18{letter-spacing:0em;}.cls-19{letter-spacing:0em;}.cls-20{letter-spacing:0em;}.cls-21{letter-spacing:0em;}.cls-22{letter-spacing:0em;}.cls-23{letter-spacing:0em;}.cls-24{letter-spacing:0em;}.cls-25{letter-spacing:0em;}.cls-26{letter-spacing:0em;}.cls-27{letter-spacing:0em;}.cls-13{font-family:TiemposFine-Semibold, 'Tiempos Fine';font-size:78px;font-weight:600;}.cls-6{font-size:21.5px;}.cls-28{letter-spacing:-.02em;}.cls-29{letter-spacing:-.02em;}.cls-30{letter-spacing:-.03em;}.cls-31{letter-spacing:-.02em;}.cls-32{letter-spacing:-.02em;}.cls-33{letter-spacing:-.02em;}.cls-34{letter-spacing:-.02em;}.cls-35{letter-spacing:-.02em;}.cls-36{letter-spacing:-.02em;}.cls-37{letter-spacing:-.02em;}.cls-38{letter-spacing:-.02em;}.cls-39{letter-spacing:-.02em;}.cls-40{letter-spacing:-.02em;}.cls-41{letter-spacing:-.02em;}.cls-42{letter-spacing:-.02em;}.cls-43{letter-spacing:-.02em;}.cls-44{letter-spacing:-.02em;}.cls-45{letter-spacing:-.02em;}.cls-46{letter-spacing:-.02em;}.cls-47{letter-spacing:-.01em;}.cls-48{letter-spacing:-.01em;}.cls-49{letter-spacing:-.02em;}.cls-50{letter-spacing:-.01em;}.cls-51{letter-spacing:-.02em;}.cls-52{letter-spacing:-.04em;}.cls-53{letter-spacing:-.04em;}.cls-54{letter-spacing:-.05em;}.cls-55{letter-spacing:-.05em;}.cls-56{letter-spacing:-.03em;}.cls-57{letter-spacing:0em;}.cls-58{letter-spacing:0em;}.cls-59{letter-spacing:0em;}.cls-60{letter-spacing:0em;}.cls-61{letter-spacing:0em;}.cls-62{letter-spacing:0em;}.cls-63{letter-spacing:0em;}.cls-64{letter-spacing:0em;}.cls-65{letter-spacing:0em;}.cls-66{letter-spacing:0em;}.cls-67{letter-spacing:0em;}.cls-68{letter-spacing:0em;}.cls-69{letter-spacing:0em;}.cls-70{letter-spacing:0em;}.cls-71{letter-spacing:0em;}.cls-72{letter-spacing:0em;}.cls-73{letter-spacing:0em;}.cls-74{letter-spacing:0em;}.cls-75{letter-spacing:0em;}.cls-76{letter-spacing:0em;}.cls-77{letter-spacing:0em;}.cls-78{letter-spacing:0em;}.cls-79{letter-spacing:0em;}.cls-80{letter-spacing:0em;}.cls-81{letter-spacing:0em;}.cls-82{letter-spacing:0em;}.cls-83{letter-spacing:-.01em;}.cls-84{letter-spacing:-.01em;}.cls-85{letter-spacing:-.01em;}.cls-86{letter-spacing:-.01em;}.cls-87{letter-spacing:-.01em;}.cls-88{letter-spacing:0em;}.cls-89{letter-spacing:0em;}.cls-90{letter-spacing:0em;}.cls-91{letter-spacing:0em;}.cls-92{letter-spacing:0em;}.cls-93{letter-spacing:0em;}.cls-94{letter-spacing:0em;}.cls-95{letter-spacing:0em;}.cls-96{letter-spacing:0em;}.cls-97{letter-spacing:0em;}.cls-98{letter-spacing:0em;}.cls-99{fill:#ededed;}.cls-100{letter-spacing:0em;}.cls-101{letter-spacing:0em;}.cls-102{letter-spacing:0em;}.cls-103{letter-spacing:0em;}.cls-104{letter-spacing:0em;}.cls-105{letter-spacing:0em;}.cls-106{letter-spacing:0em;}.cls-107{letter-spacing:0em;}.cls-108{letter-spacing:0em;}.cls-109{letter-spacing:0em;}.cls-110{letter-spacing:0em;}.cls-111{letter-spacing:0em;}.cls-112{letter-spacing:0em;}.cls-113{letter-spacing:0em;}.cls-114{letter-spacing:0em;}.cls-115{letter-spacing:0em;}.cls-116{letter-spacing:0em;}.cls-117{letter-spacing:0em;}.cls-118{letter-spacing:0em;}.cls-119{letter-spacing:0em;}.cls-120{letter-spacing:0em;}.cls-121{letter-spacing:.02em;}.cls-122{letter-spacing:.02em;}.cls-123{letter-spacing:.02em;}.cls-124{letter-spacing:.02em;}.cls-125{letter-spacing:.03em;}.cls-126{letter-spacing:.03em;}.cls-127{letter-spacing:0em;}.cls-128{letter-spacing:0em;}.cls-129{letter-spacing:0em;}.cls-130{letter-spacing:0em;}.cls-131{letter-spacing:0em;}.cls-132{letter-spacing:0em;}.cls-133{letter-spacing:0em;}.cls-134{letter-spacing:0em;}.cls-135{letter-spacing:0em;}.cls-136{letter-spacing:0em;}.cls-137{letter-spacing:0em;}.cls-138{letter-spacing:0em;}.cls-139{letter-spacing:0em;}.cls-140{letter-spacing:.01em;}.cls-141{letter-spacing:0em;}.cls-142{letter-spacing:0em;}</style></defs><g id="BACK"><rect class="cls-99" width="729" height="685"/></g><g id="TEXT_copy"><path class="cls-7" d="M0,215.97h46.27l.03-4.72,4.57,4.72h5.38v-56.25H0v56.25ZM37.38,179.59c-.19-.38-.64-.58-1.3-.58-.94,0-1.96.44-2.66,1.14-.39.39-.6.84-.65,1.07.25-.19.78-.55,1.61-.55,1.29,0,2.23.89,2.23,2.12,0,1.34-.97,2.35-2.27,2.35-1.5,0-2.58-1.1-2.58-2.63,0-1.01.38-1.89,1.17-2.67,1.03-1.03,2.33-1.49,4.21-1.49,2.52,0,4.17.53,5.36,1.72.51.51.79,1.25.79,2.08,0,.76-.34,1.54-.9,2.11-.86.86-2.05,1.24-3.3,1.64-1.12.36-2.27.72-3.38,1.45.43-.12.9-.17,1.47-.17.64,0,1.37.16,2.08.31.66.14,1.28.28,1.79.28,1.16,0,1.93-.65,2.38-1.99.02-.05.08-.13.23-.09.11.03.23.1.23.21-.45,3.13-1.25,6.01-4.08,6.01-.9,0-1.5-.19-2.2-.42-.22-.07-.45-.14-.69-.21-.87-.26-1.86-.54-2.68-.54-1.3,0-1.72.34-2.65,1.19-.02.02-.06.04-.11.04-.03,0-.07,0-.12-.03-.06-.03-.2-.1-.2-.21,0-.09.53-1.63,2.07-3.18.74-.74,1.4-1.23,1.99-1.67.46-.34.86-.64,1.2-.98.73-.74,1.22-1.72,1.22-4.16,0-1.17-.07-1.78-.26-2.15ZM12.19,196.74c.56-.19,1.11-.55,1.62-1.06.6-.6,1.21-1.64,1.92-3.26,2.07-4.75,3.93-9.16,5.85-13.89l.02-.04.04-.02c.09-.04.17-.04,1.62-.04,2.68,0,2.77.03,2.82.25.82,2.52,2.04,6.14,5.37,15.47.61,1.72.89,2.13,1.05,2.29.09.09.24.12,1.18.17h0c.08,0,.18.07.18.28s-.1.28-.19.28c-1.68-.03-3.66-.03-5.1-.03-.47,0-.97,0-1.47,0-1.54,0-3.13-.01-4.44.03-.09,0-.2-.07-.2-.28s.1-.28.19-.28c.28-.01,1.17-.05,1.32-.2.07-.07.11-.23-.09-.86-.16-.52-.43-1.31-.72-2.15-.19-.54-.38-1.09-.54-1.58-.48-.03-1.56-.05-2.61-.05-1.22,0-2.28,0-3.12.03-.13,0-.15,0-.22.14-.12.23-.18.41-.29.76-.2.67-.29,1.22-.29,1.79,0,1.61.7,2,2.17,2.22.04,0,.1.03.13.08.02.03.03.08.03.12,0,.13-.08.26-.21.26-1.91-.11-4.79-.04-5.94,0-.09,0-.16-.07-.18-.17-.03-.11.01-.21.09-.25Z"/><path class="cls-7" d="M20.47,185.7c-.28-.79-.42-1.2-.51-1.45-.68,1.69-1.39,3.34-2.13,5.09-.25.58-.49,1.16-.75,1.75,1.72.08,3.61.08,5.31.08-.98-2.79-1.56-4.45-1.92-5.47Z"/><text class="cls-13" transform="translate(79.04 215.23)"><tspan class="cls-39" x="0" y="0">S</tspan><tspan class="cls-29" x="41.64" y="0">u</tspan><tspan class="cls-85" x="87.95" y="0">b</tspan><tspan class="cls-46" x="133.75" y="0">s</tspan><tspan class="cls-43" x="167.75" y="0">c</tspan><tspan class="cls-59" x="204.03" y="0">r</tspan><tspan class="cls-30" x="236.98" y="0">i</tspan><tspan class="cls-84" x="258.87" y="0">b</tspan><tspan class="cls-36" x="304.68" y="0">e</tspan><tspan x="342.21" y="0">r </tspan><tspan class="cls-47" x="389.95" y="0">C</tspan><tspan class="cls-38" x="440.65" y="0">e</tspan><tspan class="cls-56" x="478.18" y="0">n</tspan><tspan class="cls-33" x="525.31" y="0">t</tspan><tspan class="cls-37" x="552.19" y="0">e</tspan><tspan x="589.73" y="0">r</tspan></text><text class="cls-6" transform="translate(0 282.68)"><tspan class="cls-54" x="0" y="0">Y</tspan><tspan class="cls-107" x="12.81" y="0">O</tspan><tspan class="cls-128" x="28.61" y="0">U</tspan><tspan x="43.12" y="0">R </tspan><tspan class="cls-129" x="61.69" y="0">B</tspan><tspan class="cls-8" x="74.84" y="0">E</tspan><tspan class="cls-131" x="86.53" y="0">N</tspan><tspan class="cls-9" x="101.64" y="0">E</tspan><tspan class="cls-60" x="113.33" y="0">F</tspan><tspan class="cls-40" x="124.06" y="0">I</tspan><tspan class="cls-101" x="130.22" y="0">T</tspan><tspan x="141.89" y="0">S</tspan></text><text class="cls-5" transform="translate(17.54 325.36)"><tspan class="cls-88" x="0" y="0">T</tspan><tspan class="cls-108" x="8.56" y="0">h</tspan><tspan x="17.82" y="0">e </tspan><tspan class="cls-76" x="30.35" y="0">A</tspan><tspan class="cls-21" x="41.31" y="0">n</tspan><tspan x="50.62" y="0">n </tspan><tspan class="cls-67" x="63.9" y="0">A</tspan><tspan class="cls-26" x="74.87" y="0">r</tspan><tspan class="cls-120" x="80.8" y="0">b</tspan><tspan class="cls-23" x="90.56" y="0">o</tspan><tspan x="99.64" y="0">r </tspan><tspan class="cls-138" x="109.56" y="0">N</tspan><tspan class="cls-49" x="120.77" y="0">e</tspan><tspan class="cls-87" x="129.05" y="0">w</tspan><tspan x="141.77" y="0">s o</tspan><tspan class="cls-10" x="161.81" y="0">n</tspan><tspan class="cls-71" x="171.09" y="0">l</tspan><tspan class="cls-112" x="175.42" y="0">i</tspan><tspan class="cls-108" x="179.8" y="0">n</tspan><tspan x="189.06" y="0">e </tspan><tspan class="cls-80" x="201.59" y="0">e</tspan><tspan class="cls-102" x="210.06" y="0">d</tspan><tspan class="cls-82" x="219.81" y="0">i</tspan><tspan x="224.17" y="0">t</tspan><tspan class="cls-63" x="230.35" y="0">i</tspan><tspan x="234.65" y="0">on</tspan><tspan class="cls-127" x="0" y="44">O</tspan><tspan class="cls-10" x="11.86" y="44">n</tspan><tspan class="cls-70" x="21.13" y="44">l</tspan><tspan class="cls-113" x="25.47" y="44">i</tspan><tspan class="cls-108" x="29.84" y="44">n</tspan><tspan class="cls-124" x="39.11" y="44">e</tspan><tspan class="cls-121" x="47.89" y="44">-</tspan><tspan x="53.93" y="44">o</tspan><tspan class="cls-10" x="63" y="44">n</tspan><tspan class="cls-112" x="72.27" y="44">l</tspan><tspan x="76.65" y="44">y </tspan><tspan class="cls-139" x="89.16" y="44">s</tspan><tspan class="cls-120" x="96.19" y="44">p</tspan><tspan class="cls-68" x="105.96" y="44">e</tspan><tspan class="cls-133" x="114.39" y="44">c</tspan><tspan class="cls-75" x="121.99" y="44">i</tspan><tspan class="cls-10" x="126.33" y="44">a</tspan><tspan x="134.58" y="44">l </tspan><tspan class="cls-112" x="142.99" y="44">s</tspan><tspan class="cls-69" x="149.93" y="44">e</tspan><tspan class="cls-140" x="158.37" y="44">c</tspan><tspan x="166.09" y="44">t</tspan><tspan class="cls-63" x="172.27" y="44">i</tspan><tspan x="176.57" y="44">o</tspan><tspan class="cls-113" x="185.64" y="44">n</tspan><tspan x="194.89" y="44">s</tspan><tspan class="cls-127" x="0" y="88">O</tspan><tspan class="cls-10" x="11.86" y="88">n</tspan><tspan class="cls-70" x="21.13" y="88">l</tspan><tspan class="cls-113" x="25.47" y="88">i</tspan><tspan class="cls-108" x="29.84" y="88">n</tspan><tspan x="39.11" y="88">e </tspan><tspan class="cls-15" x="51.64" y="88">p</tspan><tspan class="cls-100" x="61.43" y="88">u</tspan><tspan class="cls-118" x="70.69" y="88">z</tspan><tspan class="cls-111" x="78.33" y="88">z</tspan><tspan class="cls-77" x="85.95" y="88">l</tspan><tspan class="cls-90" x="90.3" y="88">e</tspan><tspan x="98.69" y="88">s &amp; </tspan><tspan class="cls-19" x="125.54" y="88">g</tspan><tspan class="cls-20" x="134.94" y="88">a</tspan><tspan x="143.22" y="88">m</tspan><tspan class="cls-90" x="156.97" y="88">e</tspan><tspan x="165.36" y="88">s</tspan><tspan class="cls-16" x="0" y="132">M</tspan><tspan class="cls-58" x="14.31" y="132">L</tspan><tspan class="cls-116" x="22.01" y="132">i</tspan><tspan class="cls-32" x="26.39" y="132">v</tspan><tspan class="cls-72" x="34.67" y="132">e</tspan><tspan class="cls-83" x="43.14" y="132">.</tspan><tspan class="cls-100" x="47.07" y="132">c</tspan><tspan x="54.55" y="132">om </tspan><tspan class="cls-51" x="81.37" y="132">e</tspan><tspan class="cls-28" x="89.65" y="132">x</tspan><tspan class="cls-141" x="97.68" y="132">c</tspan><tspan class="cls-103" x="105.33" y="132">l</tspan><tspan class="cls-114" x="109.72" y="132">u</tspan><tspan x="118.96" y="132">s</tspan><tspan class="cls-115" x="125.94" y="132">i</tspan><tspan class="cls-31" x="130.32" y="132">v</tspan><tspan x="138.6" y="132">e </tspan><tspan class="cls-23" x="151.13" y="132">s</tspan><tspan class="cls-61" x="158.11" y="132">t</tspan><tspan class="cls-23" x="164.18" y="132">o</tspan><tspan class="cls-96" x="173.26" y="132">r</tspan><tspan class="cls-63" x="179.15" y="132">i</tspan><tspan class="cls-90" x="183.46" y="132">e</tspan><tspan x="191.85" y="132">s</tspan><tspan class="cls-16" x="0" y="176">M</tspan><tspan class="cls-58" x="14.31" y="176">L</tspan><tspan class="cls-116" x="22.01" y="176">i</tspan><tspan class="cls-32" x="26.39" y="176">v</tspan><tspan class="cls-72" x="34.67" y="176">e</tspan><tspan class="cls-83" x="43.14" y="176">.</tspan><tspan class="cls-100" x="47.07" y="176">c</tspan><tspan x="54.55" y="176">om </tspan><tspan class="cls-51" x="81.37" y="176">e</tspan><tspan class="cls-28" x="89.65" y="176">x</tspan><tspan class="cls-141" x="97.68" y="176">c</tspan><tspan class="cls-103" x="105.33" y="176">l</tspan><tspan class="cls-114" x="109.72" y="176">u</tspan><tspan x="118.96" y="176">s</tspan><tspan class="cls-115" x="125.94" y="176">i</tspan><tspan class="cls-31" x="130.32" y="176">v</tspan><tspan x="138.6" y="176">e </tspan><tspan class="cls-108" x="151.13" y="176">n</tspan><tspan class="cls-49" x="160.39" y="176">e</tspan><tspan class="cls-87" x="168.67" y="176">w</tspan><tspan class="cls-23" x="181.38" y="176">s</tspan><tspan class="cls-77" x="188.37" y="176">l</tspan><tspan class="cls-110" x="192.71" y="176">e</tspan><tspan class="cls-142" x="201.2" y="176">t</tspan><tspan class="cls-91" x="207.51" y="176">t</tspan><tspan class="cls-100" x="213.56" y="176">e</tspan><tspan class="cls-137" x="222.07" y="176">r</tspan><tspan x="228.05" y="176">s</tspan><tspan class="cls-16" x="0" y="220">M</tspan><tspan class="cls-58" x="14.31" y="220">L</tspan><tspan class="cls-116" x="22.01" y="220">i</tspan><tspan class="cls-32" x="26.39" y="220">v</tspan><tspan class="cls-72" x="34.67" y="220">e</tspan><tspan class="cls-83" x="43.14" y="220">.</tspan><tspan class="cls-100" x="47.07" y="220">c</tspan><tspan x="54.55" y="220">om </tspan><tspan class="cls-17" x="81.37" y="220">b</tspan><tspan class="cls-134" x="91.16" y="220">r</tspan><tspan class="cls-93" x="97.16" y="220">e</tspan><tspan class="cls-21" x="105.56" y="220">a</tspan><tspan class="cls-77" x="113.85" y="220">k</tspan><tspan class="cls-113" x="122.55" y="220">i</tspan><tspan class="cls-97" x="126.93" y="220">n</tspan><tspan x="136.18" y="220">g </tspan><tspan class="cls-108" x="149.54" y="220">n</tspan><tspan class="cls-49" x="158.8" y="220">e</tspan><tspan class="cls-87" x="167.08" y="220">w</tspan><tspan x="179.79" y="220">s </tspan><tspan class="cls-10" x="190.77" y="220">a</tspan><tspan class="cls-77" x="199.02" y="220">l</tspan><tspan class="cls-98" x="203.37" y="220">e</tspan><tspan class="cls-125" x="211.88" y="220">r</tspan><tspan class="cls-119" x="218.21" y="220">t</tspan><tspan x="224.36" y="220">s</tspan></text><rect class="cls-7" y="317" width="7.91" height="7.91"/><rect class="cls-7" y="360.99" width="7.91" height="7.91"/><rect class="cls-7" y="404.98" width="7.91" height="7.91"/><rect class="cls-7" y="448.97" width="7.91" height="7.91"/><rect class="cls-7" y="492.97" width="7.91" height="7.91"/><rect class="cls-7" y="536.96" width="7.91" height="7.91"/><text class="cls-6" transform="translate(412.9 282.68)"><tspan class="cls-14" x="0" y="0">M</tspan><tspan class="cls-95" x="19.22" y="0">AN</tspan><tspan class="cls-52" x="48.74" y="0">A</tspan><tspan class="cls-136" x="62.78" y="0">G</tspan><tspan x="78.05" y="0">E </tspan><tspan class="cls-55" x="95.13" y="0">Y</tspan><tspan class="cls-104" x="107.94" y="0">O</tspan><tspan class="cls-130" x="123.74" y="0">U</tspan><tspan class="cls-27" x="138.24" y="0">R </tspan><tspan class="cls-52" x="156.82" y="0">A</tspan><tspan class="cls-42" x="170.86" y="0">C</tspan><tspan class="cls-50" x="183.67" y="0">C</tspan><tspan class="cls-106" x="196.55" y="0">O</tspan><tspan class="cls-130" x="212.35" y="0">U</tspan><tspan class="cls-86" x="226.85" y="0">N</tspan><tspan x="241.61" y="0">T</tspan></text><text class="cls-12" transform="translate(430.44 325.36)"><tspan class="cls-4"><tspan class="cls-48" x="0" y="0">R</tspan><tspan class="cls-117" x="9.59" y="0">e</tspan><tspan class="cls-120" x="18.09" y="0">p</tspan><tspan class="cls-23" x="27.86" y="0">o</tspan><tspan class="cls-125" x="36.94" y="0">r</tspan><tspan x="43.27" y="0">t a d</tspan><tspan class="cls-109" x="75.48" y="0">e</tspan><tspan class="cls-71" x="83.95" y="0">l</tspan><tspan class="cls-115" x="88.28" y="0">i</tspan><tspan class="cls-31" x="92.66" y="0">v</tspan><tspan class="cls-100" x="100.95" y="0">e</tspan><tspan class="cls-126" x="109.46" y="0">r</tspan><tspan x="115.83" y="0">y </tspan><tspan class="cls-61" x="128.34" y="0">i</tspan><tspan class="cls-79" x="132.65" y="0">s</tspan><tspan class="cls-18" x="139.56" y="0">s</tspan><tspan x="146.58" y="0">ue</tspan></tspan><tspan class="cls-4"><tspan class="cls-92" x="0" y="44">P</tspan><tspan class="cls-41" x="8.87" y="44">a</tspan><tspan x="16.84" y="44">y </tspan><tspan class="cls-45" x="29.35" y="44">y</tspan><tspan class="cls-25" x="37.55" y="44">ou</tspan><tspan x="55.93" y="44">r </tspan><tspan class="cls-109" x="65.85" y="44">b</tspan><tspan class="cls-71" x="75.57" y="44">i</tspan><tspan class="cls-64" x="79.9" y="44">l</tspan><tspan x="84.22" y="44">l</tspan></tspan><tspan class="cls-4"><tspan class="cls-53" x="0" y="88">V</tspan><tspan class="cls-110" x="9.9" y="88">a</tspan><tspan class="cls-132" x="18.11" y="88">c</tspan><tspan class="cls-116" x="25.71" y="88">a</tspan><tspan x="33.93" y="88">t</tspan><tspan class="cls-62" x="40.1" y="88">i</tspan><tspan x="44.41" y="88">on </tspan><tspan class="cls-24" x="66.76" y="88">s</tspan><tspan class="cls-61" x="73.74" y="88">t</tspan><tspan x="79.81" y="88">op</tspan></tspan><tspan class="cls-4"><tspan class="cls-105" x="0" y="132">C</tspan><tspan class="cls-134" x="9.79" y="132">r</tspan><tspan class="cls-93" x="15.79" y="132">e</tspan><tspan class="cls-116" x="24.19" y="132">a</tspan><tspan class="cls-90" x="32.41" y="132">t</tspan><tspan x="38.45" y="132">e </tspan><tspan class="cls-25" x="50.98" y="132">a</tspan><tspan x="59.25" y="132">d</tspan><tspan class="cls-102" x="69.02" y="132">d</tspan><tspan class="cls-82" x="78.78" y="132">i</tspan><tspan x="83.14" y="132">t</tspan><tspan class="cls-62" x="89.31" y="132">i</tspan><tspan x="93.62" y="132">o</tspan><tspan class="cls-108" x="102.69" y="132">n</tspan><tspan class="cls-11" x="111.95" y="132">a</tspan><tspan x="120.2" y="132">l </tspan><tspan class="cls-111" x="128.62" y="132">l</tspan><tspan class="cls-78" x="132.99" y="132">o</tspan><tspan x="142" y="132">g</tspan><tspan class="cls-113" x="151.36" y="132">in</tspan><tspan x="164.98" y="132">s </tspan></tspan><tspan class="cls-4"><tspan class="cls-61" x="0" y="156">t</tspan><tspan x="6.07" y="156">o </tspan><tspan class="cls-139" x="19.14" y="156">s</tspan><tspan class="cls-108" x="26.17" y="156">h</tspan><tspan class="cls-22" x="35.44" y="156">a</tspan><tspan class="cls-134" x="43.72" y="156">r</tspan><tspan x="49.73" y="156">e w</tspan><tspan class="cls-82" x="75.15" y="156">i</tspan><tspan class="cls-135" x="79.51" y="156">t</tspan><tspan x="85.76" y="156">h </tspan><tspan class="cls-89" x="99.04" y="156">f</tspan><tspan class="cls-21" x="104.44" y="156">a</tspan><tspan class="cls-102" x="112.73" y="156">m</tspan><tspan class="cls-71" x="126.45" y="156">i</tspan><tspan class="cls-112" x="130.78" y="156">l</tspan><tspan class="cls-123" x="135.16" y="156">y</tspan><tspan x="143.94" y="156">*</tspan></tspan><tspan class="cls-3"><tspan class="cls-57" x="0" y="180">*</tspan><tspan class="cls-73" x="6.44" y="180">U</tspan><tspan x="16.69" y="180">p </tspan><tspan class="cls-34" x="29.66" y="180">t</tspan><tspan x="35.24" y="180">o </tspan><tspan class="cls-109" x="48.13" y="180">fi</tspan><tspan class="cls-35" x="56.31" y="180">v</tspan><tspan x="64.01" y="180">e </tspan><tspan class="cls-34" x="76.27" y="180">t</tspan><tspan class="cls-44" x="81.84" y="180">o</tspan><tspan class="cls-66" x="90.56" y="180">t</tspan><tspan class="cls-74" x="96.37" y="180">a</tspan><tspan x="104.17" y="180">l </tspan><tspan class="cls-74" x="111.8" y="180">l</tspan><tspan class="cls-119" x="115.45" y="180">o</tspan><tspan class="cls-81" x="124.41" y="180">g</tspan><tspan class="cls-94" x="133.13" y="180">i</tspan><tspan class="cls-65" x="136.73" y="180">n</tspan><tspan class="cls-122" x="145.27" y="180">s</tspan><tspan x="152.23" y="180">.</tspan></tspan></text><rect class="cls-7" x="412.9" y="317" width="7.91" height="7.91"/><rect class="cls-7" x="412.9" y="360.99" width="7.91" height="7.91"/><rect class="cls-7" x="412.9" y="404.98" width="7.91" height="7.91"/><rect class="cls-7" x="412.9" y="448.97" width="7.91" height="7.91"/><rect class="cls-1" x="412.9" y="492.97" width="7.91" height="7.91"/><rect class="cls-1" x="412.9" y="536.96" width="7.91" height="7.91"/><line class="cls-2" x1="364.45" y1="285.94" x2="364.45" y2="543.45"/><circle class="cls-2" cx="364.45" cy="274.93" r="6.61"/><circle class="cls-2" cx="364.45" cy="554.46" r="6.61"/><circle class="cls-2" cx="663.87" cy="554.46" r="6.61"/><circle class="cls-2" cx="680.88" cy="554.46" r="6.61"/><circle class="cls-2" cx="646.85" cy="554.46" r="6.61"/><line class="cls-2" x1="353.44" y1="274.93" x2="174.67" y2="274.93"/><line class="cls-2" x1="375.47" y1="554.46" x2="624.45" y2="554.46"/><line class="cls-2" x1="646.52" y1="554.46" x2="652.85" y2="554.46"/></g></svg>